{"title":"Night.Train.2009.BRRip.x264.Feel-Free","uid":6116403,"size":1789088684,"categoryP":"video","categoryS":"hd___movies","magnet":"?xt=urn:btih:673886130c240460905ca2d587f4abc802db1b6c&amp;dn=Night.Train.2009.BRRip.x264.Feel-Free&amp;tr=udp%3A%2F%2Ftracker.openbittorrent.com%3A80&amp;tr=udp%3A%2F%2Fopen.demonii.com%3A1337&amp;tr=udp%3A%2F%2Ftracker.coppersurfer.tk%3A6969&amp;tr=udp%3A%2F%2Fexodus.desync.com%3A6969","seeders":0,"leechers":1,"uploader":".BONE.","files":10,"time":1295570997,"description":"\nGenre:Action | Crime | Mystery\nLanguage:English\nIMDb:http://www.imdb.com/title/tt1020055/\nSource:1080p.Bluray.x264.DTS-CHD\nSubtitles:Romana\n\n\n\nFormat : Matroska\nFile size : 1.66 GiB\nDuration : 1h 30mn\nOverall bit rate : 2 621 Kbps\n\n\nVideo\nFormat settings, CABAC : Yes\nFormat settings, ReFrames : 4 frames\nFormat settings, GOP : M=4, N=16\nCodec ID : V_MPEG4/ISO/AVC\nDuration : 1h 30mn\nBit rate : 2 185 Kbps\nNominal bit rate : 2 300 Kbps\nWidth : 1 280 pixels\nHeight : 720 pixels\nDisplay aspect ratio : 16:9\nFrame rate mode : Variable\nFrame rate : 23.976 fps\nColor space : YUV\nChroma subsampling : 4:2:0\nBit depth : 8 bits\nScan type : Progressive\nBits/(Pixel*Frame) : 0.099\nStream size : 1.38 GiB (83%)\nWriting library : x264 core 106 r1732 b20059a\n\n\nAudio\nID : 2\nFormat : AC-3\nFormat/Info : Audio Coding 3\nMode extension : CM (complete main)\nCodec ID : A_AC3\nDuration : 1h 30mn\nBit rate mode : Constant\nBit rate : 384 Kbps\nChannel(s) : 6 channels\nChannel positions : Front: L C R, Side: L R, LFE\nSampling rate : 48.0 KHz\nBit depth : 16 bits\nVideo delay : -1mn 5s\nStream size : 249 MiB (15%)\nLanguage : English\n\n\nPlot:\nTwo Passengers and the conductor discover that a person has passed away on their Night Train cabin. They come across valuable diamonds on his person\n\n &lt;a href=&quot;\nhttp://shareimage.org/images/zu5343b1afzj4alndz7.png&quot; rel=&quot;nofollow&quot; target=&quot;_NEW&quot;&gt;\nhttp://shareimage.org/images/zu5343b1afzj4alndz7.png&lt;/a&gt;\n &lt;a href=&quot;\nhttp://shareimage.org/images/y6hbo8y2ml54saal79pr.png&quot; rel=&quot;nofollow&quot; target=&quot;_NEW&quot;&gt;\nhttp://shareimage.org/images/y6hbo8y2ml54saal79pr.png&lt;/a&gt;\n &lt;a href=&quot;\nhttp://shareimage.org/images/mctrzc0tftml9xecykx.png&quot; rel=&quot;nofollow&quot; target=&quot;_NEW&quot;&gt;\nhttp://shareimage.org/images/mctrzc0tftml9xecykx.png&lt;/a&gt;\n &lt;a href=&quot;\nhttp://shareimage.org/images/tbsb2xc6z5u041d4tb0h.png&quot; rel=&quot;nofollow&quot; target=&quot;_NEW&quot;&gt;\nhttp://shareimage.org/images/tbsb2xc6z5u041d4tb0h.png&lt;/a&gt;\n &lt;a href=&quot;\nhttp://shareimage.org/images/xpo396w47ogkcdby59n0.png&quot; rel=&quot;nofollow&quot; target=&quot;_NEW&quot;&gt;\nhttp://shareimage.org/images/xpo396w47ogkcdby59n0.png&lt;/a&gt;","torrent":{"xt":"urn:btih:673886130c240460905ca2d587f4abc802db1b6c","amp;dn":"Night.Train.2009.BRRip.x264.Feel-Free","amp;tr":["udp%3A%2F%2Ftracker.openbittorrent.com%3A80","udp%3A%2F%2Fopen.demonii.com%3A1337","udp%3A%2F%2Ftracker.coppersurfer.tk%3A6969","udp%3A%2F%2Fexodus.desync.com%3A6969"],"infoHash":"673886130c240460905ca2d587f4abc802db1b6c","infoHashBuffer":{"type":"Buffer","data":[103,56,134,19,12,36,4,96,144,92,162,213,135,244,171,200,2,219,27,108]},"announce":[],"urlList":[]}}